<?xml version="1.0" encoding="UTF-8"?>
<svg xmlns="http://www.w3.org/2000/svg" width="83" height="80" viewBox="0 0 83 80" fill="none">
  <path d="M2.86719 77.5586H80.1613" stroke="#97C11D" stroke-width="4" stroke-linecap="round" stroke-linejoin="round"></path>
  <path d="M41.2913 2L80.132 37.7153V42.3274H71.9708V77.5587H11.042V42.3274H2.83789V37.6726L41.2913 2Z" stroke="#97C11D" stroke-width="4" stroke-linecap="round" stroke-linejoin="round"></path>
  <path d="M41.5056 20.9607C37.9199 26.3557 28.2671 39.3379 26.1587 44.3771C21.5116 55.4091 29.5723 66.6689 41.5056 66.6689C53.439 66.6689 61.514 55.4091 56.8526 44.3771C54.7442 39.3379 45.0914 26.3699 41.5056 20.9607Z" stroke="#97C11D" stroke-width="4" stroke-linecap="round" stroke-linejoin="round"></path>
  <path d="M41.5078 57.1174L49.1239 52.7473" stroke="#97C11D" stroke-width="4" stroke-linecap="round" stroke-linejoin="round"></path>
  <path d="M41.5072 44.1352L38.2227 42.2419" stroke="#97C11D" stroke-width="4" stroke-linecap="round" stroke-linejoin="round"></path>
  <path d="M41.5078 35.1814V77.5586" stroke="#97C11D" stroke-width="4" stroke-linecap="round" stroke-linejoin="round"></path>
  <path d="M41.5078 44.1352L44.8067 42.2419" stroke="#97C11D" stroke-width="4" stroke-linecap="round" stroke-linejoin="round"></path>
  <path d="M41.5067 57.1174L33.8906 52.7473" stroke="#97C11D" stroke-width="4" stroke-linecap="round" stroke-linejoin="round"></path>
</svg>
