<?xml version="1.0" encoding="UTF-8"?>
<svg xmlns="http://www.w3.org/2000/svg" width="91" height="84" viewBox="0 0 91 84" fill="none">
  <path d="M53.1467 17.2941C53.1467 12.7414 49.7271 9.05882 45.4996 9.05882C41.2721 9.05882 37.8525 12.7414 37.8525 17.2941" stroke="#97C11D" stroke-width="4" stroke-linecap="round" stroke-linejoin="round"></path>
  <path d="M46.088 20.9856C46.088 20.9856 39.5028 26.4402 19.9066 31.8948C10.7064 34.4535 2.55859 29.7344 2.55859 20.9856C2.55859 12.2368 11.0094 6.65968 19.9066 10.0765C37.2546 16.7415 46.088 20.9856 46.088 20.9856Z" stroke="#97C11D" stroke-width="4" stroke-linecap="round" stroke-linejoin="round"></path>
  <path d="M46.0884 82C46.0884 82 40.2061 75.4797 40.2061 72.2043V30.2791C40.2061 27.0037 42.8334 24.3529 46.0884 24.3529C49.3288 24.3529 51.9708 27.0037 51.9708 30.2791V72.2043C51.9708 75.4797 46.0884 82 46.0884 82Z" stroke="#97C11D" stroke-width="4" stroke-linecap="round" stroke-linejoin="round"></path>
  <path d="M46.0879 20.9732C46.0879 20.9732 52.4951 26.4336 71.5617 31.894C80.5132 34.4555 88.4408 29.7313 88.4408 20.9732C88.4408 12.4757 80.2185 6.63186 71.5617 10.0523C54.6826 16.7244 46.0879 20.9732 46.0879 20.9732Z" stroke="#97C11D" stroke-width="4" stroke-linecap="round" stroke-linejoin="round"></path>
  <path d="M41.3821 10.2353L34.3232 2" stroke="#97C11D" stroke-width="4" stroke-linecap="round" stroke-linejoin="round"></path>
  <path d="M50.7939 10.2353L56.6763 2" stroke="#97C11D" stroke-width="4" stroke-linecap="round" stroke-linejoin="round"></path>
  <path d="M40.2061 37.2941H50.7943" stroke="#97C11D" stroke-width="4" stroke-linecap="round" stroke-linejoin="round"></path>
  <path d="M40.2061 49.0588H50.7943" stroke="#97C11D" stroke-width="4" stroke-linecap="round" stroke-linejoin="round"></path>
  <path d="M40.2061 59.6471H50.7943" stroke="#97C11D" stroke-width="4" stroke-linecap="round" stroke-linejoin="round"></path>
</svg>
