<?xml version="1.0" encoding="UTF-8"?>
<svg xmlns="http://www.w3.org/2000/svg" width="97" height="84" viewBox="0 0 97 84" fill="none">
  <path d="M49.1582 29.0147V80.62" stroke="#97C11D" stroke-width="4" stroke-linecap="round" stroke-linejoin="round"></path>
  <path d="M49.1582 45.9168L64.5355 37.0404" stroke="#97C11D" stroke-width="4" stroke-linecap="round" stroke-linejoin="round"></path>
  <path d="M49.1575 45.9168L33.7803 37.0404" stroke="#97C11D" stroke-width="4" stroke-linecap="round" stroke-linejoin="round"></path>
  <path d="M5.38574 82H92.9141" stroke="#97C11D" stroke-width="4" stroke-linecap="round" stroke-linejoin="round"></path>
  <path d="M65.8838 78.7097V52.9632" stroke="#97C11D" stroke-width="4" stroke-linecap="round" stroke-linejoin="round"></path>
  <path d="M14.375 80.6194V35.6915" stroke="#97C11D" stroke-width="4" stroke-linecap="round" stroke-linejoin="round"></path>
  <path d="M82.6094 78.7096V37.5859" stroke="#97C11D" stroke-width="4" stroke-linecap="round" stroke-linejoin="round"></path>
  <path d="M31.7588 78.7097V52.9632" stroke="#97C11D" stroke-width="4" stroke-linecap="round" stroke-linejoin="round"></path>
  <path d="M59.4151 18.7576C59.4151 24.4237 54.8244 29.0144 49.1582 29.0144C43.4921 29.0144 38.9014 24.4237 38.9014 18.7576" stroke="#97C11D" stroke-width="4" stroke-linecap="round" stroke-linejoin="round"></path>
  <path d="M38.8857 18.7577V2" stroke="#97C11D" stroke-width="4" stroke-linecap="round" stroke-linejoin="round"></path>
  <path d="M59.415 18.7577V2" stroke="#97C11D" stroke-width="4" stroke-linecap="round" stroke-linejoin="round"></path>
  <path d="M86.735 15.8519C87.4092 17.2163 88.7094 18.1473 90.2022 18.372C93.9742 18.9178 95.4831 23.5566 92.7543 26.2211C91.6628 27.2805 91.1813 28.8054 91.4381 30.2982C92.0802 34.0542 88.1315 36.9274 84.7607 35.1457C83.4124 34.4395 81.8233 34.4395 80.475 35.1457C77.1042 36.9274 73.1555 34.0542 73.7976 30.2982C74.0544 28.8054 73.5568 27.2805 72.4814 26.2211C69.7526 23.5566 71.2615 18.9178 75.0336 18.372C76.5263 18.1473 77.8265 17.2163 78.5007 15.8519C80.1861 12.433 85.0657 12.433 86.7511 15.8519H86.735Z" stroke="#97C11D" stroke-width="4" stroke-linecap="round" stroke-linejoin="round"></path>
  <path fill-rule="evenodd" clip-rule="evenodd" d="M85.3217 24.4881C85.3217 25.997 84.1018 27.2169 82.593 27.2169C81.0842 27.2169 79.8643 25.997 79.8643 24.4881C79.8643 22.9793 81.0842 21.7594 82.593 21.7594C84.1018 21.7594 85.3217 22.9793 85.3217 24.4881Z" fill="#97C11D"></path>
  <path d="M38.8857 2L49.1586 7.34512" stroke="#97C11D" stroke-width="4" stroke-linecap="round" stroke-linejoin="round"></path>
  <path d="M59.4151 2L49.1582 7.34512" stroke="#97C11D" stroke-width="4" stroke-linecap="round" stroke-linejoin="round"></path>
  <path d="M18.4997 15.8519C19.1739 17.2163 20.474 18.1473 21.9668 18.372C25.7389 18.9178 27.2477 23.5566 24.519 26.2211C23.4275 27.2805 22.9459 28.8054 23.2028 30.2982C23.8448 34.0542 19.8962 36.9274 16.5254 35.1457C15.1771 34.4395 13.588 34.4395 12.2396 35.1457C8.86885 36.9274 4.9202 34.0542 5.56225 30.2982C5.81908 28.8054 5.32148 27.2805 4.24604 26.2211C1.5173 23.5566 3.02613 18.9178 6.79821 18.372C8.29099 18.1473 9.59116 17.2163 10.2653 15.8519C11.9507 12.433 16.8303 12.433 18.5157 15.8519H18.4997Z" stroke="#97C11D" stroke-width="4" stroke-linecap="round" stroke-linejoin="round"></path>
  <path fill-rule="evenodd" clip-rule="evenodd" d="M17.103 24.4881C17.103 25.997 15.8831 27.2169 14.3742 27.2169C12.8654 27.2169 11.6455 25.997 11.6455 24.4881C11.6455 22.9793 12.8654 21.7594 14.3742 21.7594C15.8831 21.7594 17.103 22.9793 17.103 24.4881Z" fill="#97C11D"></path>
</svg>
