<?xml version="1.0" encoding="UTF-8"?>
<svg xmlns="http://www.w3.org/2000/svg" id="Warstwa_2" data-name="Warstwa 2" viewBox="0 0 573.56 139.04">
  <defs>
    <style>
      .cls-1 {
        fill: #97c11d;
      }

      .cls-1, .cls-2 {
        stroke-width: 0px;
      }

      .cls-2 {
        fill: #fff;
      }
    </style>
  </defs>
  <g id="Layer_1" data-name="Layer 1">
    <path class="cls-2" d="M311.85,20.21h-72.19c-9.23,0-16.71,7.53-16.72,16.81v83.32c-.54,9.25,6.55,16.82,15.77,16.82h74.38c34.87,0,62.67-31.06,57.5-67.12-4.14-28.91-29.71-49.83-58.74-49.83M312.31,103.52h-56.17v-49.67h56.94c14.84,0,26.67,13.25,24.41,28.6-1.81,12.29-12.84,21.07-25.18,21.07"></path>
    <path class="cls-2" d="M502.81,137.15h-62.07c-32.08,0-58.19-26.26-58.19-58.54s26.1-58.54,58.19-58.54h62.07c9.24,0,16.74,7.54,16.74,16.84s-7.49,16.84-16.74,16.84h-62.07c-13.63,0-24.71,11.15-24.71,24.86s11.09,24.86,24.71,24.86h62.07c9.24,0,16.74,7.54,16.74,16.84s-7.49,16.84-16.74,16.84"></path>
    <path class="cls-1" d="M189.15,139.04h.56s0,0,0,0c9.41-.15,16.47-7.26,16.47-16.66v-43.86c0-17.53-7.6-34.16-20.86-45.63-13.11-11.34-30.53-16.41-47.81-13.91-12.72,1.85-24.27,7.81-33.41,17.24-.16.16-.38.26-.61.26h0c-.23,0-.45-.09-.61-.26-11-11.24-25.65-17.63-41.26-17.98-15.97-.36-31.11,5.66-42.67,16.97C7.05,46.87.47,62.52.47,79.27v1.28h-.13l-.34,41.98c0,9.1,7.4,16.51,16.51,16.51s17.44-7.59,17.52-16.91v-43.72c0-7.71,3.34-15.03,9.19-20.07,5.78-4.98,13.46-7.19,21.06-6.06,12.71,1.89,22.29,13.47,22.29,26.94v43.32c0,9.1,7.4,16.51,16.51,16.51s17.04-7.64,17.04-17.04v-43.55c.02-7.7,3.38-15,9.22-20.03,4.78-4.11,10.86-6.33,17.12-6.33,1.3,0,2.61.1,3.91.29,12.71,1.89,22.29,13.47,22.29,26.94v42.43c0,9.21,7.71,17.29,16.51,17.29Z"></path>
    <path class="cls-2" d="M535.54,53.53v-3.58c0-2.98.69-5.59,2.09-7.83,1.39-2.24,3.21-4.25,5.44-6.04,2.24-1.79,4.55-3.53,6.93-5.22,3.28-2.39,6.26-4.77,8.95-7.16,2.68-2.39,4.03-5.17,4.03-8.35,0-1.69-.62-3.21-1.86-4.55-1.24-1.34-3.26-2.01-6.04-2.01-2.09,0-3.75.32-5,.97-1.24.65-2.16,1.57-2.76,2.76-.6,1.19-.89,2.59-.89,4.18v3.28h-9.99c-.1-.4-.2-.99-.3-1.79-.1-.79-.15-1.54-.15-2.24,0-3.78.9-6.83,2.68-9.17,1.79-2.33,4.18-4.05,7.16-5.14,2.98-1.09,6.21-1.64,9.69-1.64,4.37,0,7.85.8,10.44,2.39,2.58,1.59,4.45,3.58,5.59,5.96,1.14,2.39,1.72,4.82,1.72,7.31,0,2.68-.47,5.07-1.42,7.16-.95,2.09-2.24,3.98-3.88,5.67-1.64,1.69-3.43,3.26-5.37,4.7-1.94,1.44-3.85,2.81-5.74,4.1-1.69,1.19-3.31,2.36-4.85,3.5-1.54,1.14-2.81,2.31-3.8,3.5h25.35v9.24h-38.02Z"></path>
  </g>
</svg>
