<?xml version="1.0" encoding="UTF-8"?>
<svg xmlns="http://www.w3.org/2000/svg" width="85" height="84" viewBox="0 0 85 84" fill="none">
  <path d="M67.9949 72.0424C61.3976 79.8574 49.5903 82 42.4998 82C20.4113 82 2.5 64.0887 2.5 42.0002C2.5 35.0484 4.27263 28.5128 7.3863 22.825" stroke="#97C11D" stroke-width="4" stroke-linecap="round" stroke-linejoin="round"></path>
  <path d="M17.5752 10.709C24.4191 5.25239 33.0664 2 42.4999 2C64.5885 2 82.4997 19.9113 82.4997 41.9998C82.4997 50.1231 80.0797 57.676 75.9179 63.9804" stroke="#97C11D" stroke-width="4" stroke-linecap="round" stroke-linejoin="round"></path>
  <path d="M24.6963 13.5915H15.417V4.31213" stroke="#97C11D" stroke-width="4" stroke-linecap="round" stroke-linejoin="round"></path>
  <path d="M66.8544 81.2442L67.995 72.042L58.7773 70.8859" stroke="#97C11D" stroke-width="4" stroke-linecap="round" stroke-linejoin="round"></path>
  <path d="M42.6386 21.4062C39.7408 25.7993 31.9566 36.358 30.2456 40.4581C26.4846 49.4292 33.0048 58.6006 42.6386 58.6006C52.2725 58.6006 58.7927 49.4446 55.0316 40.4581C53.3207 36.358 45.5365 25.7993 42.6386 21.4062Z" stroke="#97C11D" stroke-width="4" stroke-linecap="round" stroke-linejoin="round"></path>
</svg>
