<?xml version="1.0" encoding="UTF-8"?>
<svg xmlns="http://www.w3.org/2000/svg" width="78" height="83" viewBox="0 0 78 83" fill="none">
  <path d="M75.0879 45.049C73.096 66.4871 55.169 82.139 35.0574 80.0054C14.9458 77.8718 0.263649 58.7721 2.2716 37.334C4.26348 15.9129 22.1744 0.261077 42.286 2.39465C45.3863 2.71895 48.3741 3.4529 51.1853 4.54529C52.9683 5.22803 54.6871 6.06439 56.3256 7.02023" stroke="#97C11D" stroke-width="4" stroke-linecap="round" stroke-linejoin="round"></path>
  <path d="M67.0874 22.0933L38.6788 68.6449L14.0371 29.8861" stroke="#97C11D" stroke-width="4" stroke-linecap="round" stroke-linejoin="round"></path>
  <path d="M73.5569 11.3852C69.5795 13.2683 59.4333 17.3983 56.4165 19.6294C49.7975 24.4873 50.2778 34.2981 57.0169 38.8078C63.756 43.3334 72.3862 39.6149 73.752 31.2441C74.3824 27.4305 73.6169 15.9899 73.5569 11.3852Z" stroke="#97C11D" stroke-width="4" stroke-linecap="round" stroke-linejoin="round"></path>
</svg>
