<?xml version="1.0" encoding="UTF-8"?>
<svg xmlns="http://www.w3.org/2000/svg" width="81" height="84" viewBox="0 0 81 84" fill="none">
  <path d="M29.5254 16.1953V80.3581" stroke="#97C11D" stroke-width="4" stroke-linecap="round" stroke-linejoin="round"></path>
  <path d="M29.5254 45.8598L42.7692 38.2174" stroke="#97C11D" stroke-width="4" stroke-linecap="round" stroke-linejoin="round"></path>
  <path d="M29.5254 31.664L37.5975 26.9834" stroke="#97C11D" stroke-width="4" stroke-linecap="round" stroke-linejoin="round"></path>
  <path d="M29.5248 45.8598L16.2656 38.2174" stroke="#97C11D" stroke-width="4" stroke-linecap="round" stroke-linejoin="round"></path>
  <path d="M29.525 31.664L21.4375 26.9834" stroke="#97C11D" stroke-width="4" stroke-linecap="round" stroke-linejoin="round"></path>
  <path d="M56.8415 29.3164C56.8415 44.4018 44.6105 56.6328 29.5251 56.6328C14.4397 56.6328 2.19336 44.4171 2.19336 29.3164C2.19336 14.2156 14.4243 2 29.5251 2C44.6258 2 56.8415 14.231 56.8415 29.3164Z" stroke="#97C11D" stroke-width="4" stroke-linecap="round" stroke-linejoin="round"></path>
  <path d="M4.40234 82H78.2487" stroke="#97C11D" stroke-width="4" stroke-linecap="round" stroke-linejoin="round"></path>
  <path d="M78.6175 68.7566L65.2662 43.6654C65.0206 43.205 64.5756 42.9442 64.0692 42.9442C63.5627 42.9442 63.1024 43.205 62.8722 43.6654L49.5209 68.7566C49.2907 69.1863 49.306 69.6774 49.5516 70.1071C49.7971 70.5368 50.2268 70.767 50.7179 70.767H77.4358C77.9269 70.767 78.3566 70.5368 78.6021 70.1071C78.863 69.6774 78.8783 69.2016 78.6328 68.7566H78.6175Z" stroke="#97C11D" stroke-width="4" stroke-linecap="round" stroke-linejoin="round"></path>
  <path d="M64.0684 81.2635V60.2544" stroke="#97C11D" stroke-width="4" stroke-linecap="round" stroke-linejoin="round"></path>
</svg>
