<?xml version="1.0" encoding="UTF-8"?>
<svg xmlns="http://www.w3.org/2000/svg" width="28" height="36" viewBox="0 0 28 36" fill="none">
  <rect y="4" width="27.5347" height="27.5005" rx="6" fill="#EDEEF0"></rect>
  <path d="M9.08056 14.6227H5.56018C5.40394 14.6227 5.27734 14.7493 5.27734 14.9055V26.215C5.27734 26.3712 5.40394 26.4978 5.56018 26.4978H9.08056C9.2368 26.4978 9.36339 26.3712 9.36339 26.215V14.9055C9.36339 14.7493 9.2368 14.6227 9.08056 14.6227Z" fill="#5A6372"></path>
  <path d="M7.32105 9.00073C6.04014 9.00073 4.99805 10.0417 4.99805 11.3212C4.99805 12.6013 6.04014 13.6426 7.32105 13.6426C8.60095 13.6426 9.64219 12.6012 9.64219 11.3212C9.64225 10.0417 8.60095 9.00073 7.32105 9.00073Z" fill="#5A6372"></path>
  <path d="M18.036 14.3435C16.6221 14.3435 15.5769 14.9513 14.9429 15.642V14.9074C14.9429 14.7512 14.8163 14.6246 14.6601 14.6246H11.2887C11.1325 14.6246 11.0059 14.7512 11.0059 14.9074V26.2169C11.0059 26.3731 11.1325 26.4997 11.2887 26.4997H14.8014C14.9576 26.4997 15.0842 26.3731 15.0842 26.2169V20.6213C15.0842 18.7358 15.5964 18.0012 16.9108 18.0012C18.3423 18.0012 18.456 19.1788 18.456 20.7183V26.2169C18.456 26.3732 18.5826 26.4998 18.7389 26.4998H22.2529C22.4091 26.4998 22.5357 26.3732 22.5357 26.2169V20.0135C22.5357 17.2097 22.0011 14.3435 18.036 14.3435Z" fill="#5A6372"></path>
</svg>
