<?xml version="1.0" encoding="UTF-8"?>
<svg xmlns="http://www.w3.org/2000/svg" width="85" height="84" viewBox="0 0 85 84" fill="none">
  <path d="M34.0385 23.1537C34.0385 28.8888 29.22 33.5384 23.2768 33.5384C17.3336 33.5384 12.5 28.8888 12.5 23.1537C12.5 17.4187 17.3184 12.7691 23.2768 12.7691C29.2352 12.7691 34.0385 17.4187 34.0385 23.1537Z" stroke="#97C11D" stroke-width="4" stroke-linecap="round" stroke-linejoin="round"></path>
  <path d="M23.2695 33.5385H82.5003" stroke="#97C11D" stroke-width="4" stroke-linecap="round" stroke-linejoin="round"></path>
  <path d="M23.2695 44.3076H82.5003" stroke="#97C11D" stroke-width="4" stroke-linecap="round" stroke-linejoin="round"></path>
  <path d="M78.7138 54.3076H7.82582C5.73445 54.3076 4.03906 56.0258 4.03906 58.1452V78.1623C4.03906 80.2818 5.73445 81.9999 7.82582 81.9999H78.7138C80.8052 81.9999 82.5006 80.2818 82.5006 78.1623V58.1452C82.5006 56.0258 80.8052 54.3076 78.7138 54.3076Z" stroke="#97C11D" stroke-width="4" stroke-linecap="round" stroke-linejoin="round"></path>
  <path d="M15.0338 76.6155C14.8389 76.6155 14.63 76.5842 14.435 76.4904C13.516 76.1153 13.0425 74.9899 13.3767 73.9583L17.5404 61.0006C17.8746 59.969 18.8773 59.4375 19.7963 59.8127C20.7154 60.1878 21.1889 61.3132 20.8547 62.3448L16.691 75.3025C16.4264 76.1153 15.758 76.6155 15.0338 76.6155Z" fill="#97C11D"></path>
  <path d="M25.2103 76.6155C24.9958 76.6155 24.766 76.5842 24.5516 76.4904C23.5406 76.1153 23.0198 74.9899 23.3874 73.9583L27.9675 61.0006C28.3351 59.969 29.438 59.4375 30.449 59.8127C31.46 60.1878 31.9808 61.3132 31.6132 62.3448L27.0331 75.3025C26.7421 76.1153 26.0068 76.6155 25.2103 76.6155Z" fill="#97C11D"></path>
  <path d="M35.2103 76.6155C34.9958 76.6155 34.766 76.5842 34.5516 76.4904C33.5406 76.1153 33.0198 74.9899 33.3874 73.9583L37.9675 61.0006C38.3351 59.969 39.438 59.4375 40.449 59.8127C41.46 60.1878 41.9808 61.3132 41.6132 62.3448L37.0331 75.3025C36.7421 76.1153 36.0068 76.6155 35.2103 76.6155Z" fill="#97C11D"></path>
  <path d="M45.8034 76.6155C45.6084 76.6155 45.3995 76.5842 45.2046 76.4904C44.2855 76.1153 43.812 74.9899 44.1462 73.9583L48.3099 61.0006C48.6442 59.969 49.6468 59.4375 50.5659 59.8127C51.4849 60.1878 51.9584 61.3132 51.6242 62.3448L47.4605 75.3025C47.1959 76.1153 46.5275 76.6155 45.8034 76.6155Z" fill="#97C11D"></path>
  <path d="M55.8034 76.6155C55.6084 76.6155 55.3995 76.5842 55.2046 76.4904C54.2855 76.1153 53.812 74.9899 54.1462 73.9583L58.3099 61.0006C58.6442 59.969 59.6468 59.4375 60.5659 59.8127C61.4849 60.1878 61.9584 61.3132 61.6242 62.3448L57.4605 75.3025C57.1959 76.1153 56.5275 76.6155 55.8034 76.6155Z" fill="#97C11D"></path>
  <path d="M65.9798 76.6155C65.7653 76.6155 65.5356 76.5842 65.3211 76.4904C64.3101 76.1153 63.7893 74.9899 64.157 73.9583L68.737 61.0006C69.1047 59.969 70.2076 59.4375 71.2185 59.8127C72.2295 60.1878 72.7503 61.3132 72.3827 62.3448L67.8026 75.3025C67.5116 76.1153 66.7763 76.6155 65.9798 76.6155Z" fill="#97C11D"></path>
  <path d="M23.2692 44.3077C11.8072 44.3077 2.5 34.8399 2.5 23.1462C2.5 11.4525 11.7923 2 23.2692 2C34.7462 2 44.0385 11.4678 44.0385 23.1615C44.0385 27.1102 42.802 30.3825 40.9615 33.5385" stroke="#97C11D" stroke-width="4" stroke-linecap="round" stroke-linejoin="round"></path>
</svg>
