<?xml version="1.0" encoding="UTF-8"?>
<svg xmlns="http://www.w3.org/2000/svg" width="85" height="84" viewBox="0 0 85 84" fill="none">
  <path d="M27.3226 37.1437H22.0488" stroke="#97C11D" stroke-width="4" stroke-linecap="round" stroke-linejoin="round"></path>
  <path d="M55.3174 32.163L65.7477 59.7917" stroke="#97C11D" stroke-width="4" stroke-linecap="round" stroke-linejoin="round"></path>
  <path d="M57.3975 39.9126L31.1312 44.7323L25.374 51.134" stroke="#97C11D" stroke-width="4" stroke-linecap="round" stroke-linejoin="round"></path>
  <path d="M27.3223 37.2317L29.1241 40.5424L39.4959 59.7917L42.6602 65.5635" stroke="#97C11D" stroke-width="4" stroke-linecap="round" stroke-linejoin="round"></path>
  <path d="M57.3986 39.9126L39.4971 59.7918" stroke="#97C11D" stroke-width="4" stroke-linecap="round" stroke-linejoin="round"></path>
  <path fill-rule="evenodd" clip-rule="evenodd" d="M65.7477 50.1228C59.9905 50.1228 55.3174 54.796 55.3174 60.5532C55.3174 66.3104 59.9905 70.9835 65.7477 70.9835C71.5049 70.9835 76.1781 66.3104 76.1781 60.5532C76.1781 54.796 71.5049 50.1228 65.7477 50.1228Z" stroke="#97C11D" stroke-width="4" stroke-linecap="round" stroke-linejoin="round"></path>
  <path fill-rule="evenodd" clip-rule="evenodd" d="M17.5954 50.1228C11.8382 50.1228 7.16504 54.796 7.16504 60.5532C7.16504 66.3104 11.8382 70.9835 17.5954 70.9835C23.3526 70.9835 28.0257 66.3104 28.0257 60.5532C28.0257 54.796 23.3526 50.1228 17.5954 50.1228Z" stroke="#97C11D" stroke-width="4" stroke-linecap="round" stroke-linejoin="round"></path>
  <path d="M55.318 32.163H46.1475" stroke="#97C11D" stroke-width="4" stroke-linecap="round" stroke-linejoin="round"></path>
  <path d="M39.4965 59.7915H17.5957" stroke="#97C11D" stroke-width="4" stroke-linecap="round" stroke-linejoin="round"></path>
  <path d="M2.16992 38.7113L41.4449 2L81.1154 38.7553" stroke="#97C11D" stroke-width="4" stroke-linecap="round" stroke-linejoin="round"></path>
  <path d="M3.88477 82H82.8302" stroke="#97C11D" stroke-width="4" stroke-linecap="round" stroke-linejoin="round"></path>
</svg>
